<?xml version="1.0" encoding="UTF-8"?>
<svg id="Layer_1" xmlns="http://www.w3.org/2000/svg" version="1.1" viewBox="0 0 2000 1024">
  <!-- Generator: Adobe Illustrator 30.0.0, SVG Export Plug-In . SVG Version: 2.1.1 Build 123)  -->
  <defs>
    <style>
      .st0 {
        fill: #94a4a3;
      }

      .st1 {
        fill: #9ca4a7;
      }

      .st2 {
        fill: #253b50;
      }

      .st3 {
        fill: #3b5260;
      }

      .st4 {
        fill: #193b57;
      }
    </style>
  </defs>
  <path class="st3" d="M940.9,539.2c-13.5-4.4-26.2-9.8-39.7-13.2-7-1.7-14.1-2.6-21.1-3.6-4-.6-5.6-2.1-5.6-6.4.2-29.3,0-58.6,0-88,0-9.8-2.3-12.9-12-15.8-2.5-.8-4.9-1.7-7.2-2.4,0-2.3,1.3-2.7,2.4-3.4,8.6-5.6,17.2-11.4,26-16.8,3.6-2.2,4.9-4.8,4.8-9-.2-11.8,0-23.7-.1-35.5,0-4,1.2-5.6,5.4-5.5,9.9.2,19.9,0,30.1,0,.8,7.5-.4,14.5,1.1,21.4,2.8.2,4.8-1.6,6.8-2.8,19.7-12.2,39.4-24.4,58.9-36.8,3.9-2.5,6.7-2.6,10.7,0,34.1,21.7,68.5,43.1,102.7,64.7,9.7,6.1,19.3,12.5,28.9,18.7,1.1.7,2.4,1.3,2.8,2.8-.4,2.1-2.3,2.2-3.8,2.6-4.2,1-7.5,3.5-10.9,5.9-3.1,2.2-4,4.8-4,8.5,0,29.8,0,59.6.1,89.5,0,4.9-.6,7.1-6.4,7.8-22.5,2.8-43.2,11.7-64.4,19.3-15.7,5.6-31.3,11.2-47,16.9-2.2.8-4.1.9-6.3,0-17.4-6.3-34.8-12.5-52.5-18.8M948.5,521.9c15,5.5,30,11,44.9,16.7,1.9.7,3.4.8,5.2,0,18.4-6.9,36.7-13.9,55.2-20.6,12.7-4.6,24.9-10.5,38.5-12,4.7-.5,5.6-2.5,5.6-6.6-.1-29-.2-58,.1-87,0-5.9-2.2-8.9-6.9-11.8-30.4-18.5-60.8-37.3-91-56.1-3.2-2-5.4-2.1-8.5,0-10.1,6.5-20.3,12.8-30.4,19.1-21.3,13.3-42.7,26.5-64.1,39.8-1.9,1.2-3.3,2.3-3.2,5,.2,28.5.2,57,.3,85.5q0,10.8,10.7,13.1c.5.1,1,.3,1.4.4,14.2,3.7,27.8,9.3,42.2,14.6Z"/>
  <path class="st0" d="M1196.9,587.1c0-9.3,0-9,8.5-9.4,4.6-.2,7.3,1.6,9.6,5.4,5.1,8.2,10.6,16.1,16,24.1.8,1.2,1.3,2.8,3.1,3,2.1-1.1,1.5-3.1,1.5-4.8.1-7.7.3-15.3.1-23,0-3.5,1.2-4.9,4.7-4.7,1.5.1,3,0,4.5,0,2.9-.1,4.3,1.1,4.3,4.1,0,17.2,0,34.3,0,51.5,0,3.1-1.5,3.8-4.3,4.1-6.1.7-10.2-1.1-13.5-6.7-5.9-9.8-12.7-19-19.8-29.5-2.3,12.6-.6,24.2-1.3,36-3.7,0-7.1,0-10.6,0-3.3,0-2.9-2.6-2.9-4.7,0-15,0-30,0-45.5Z"/>
  <path class="st2" d="M765.8,580.2c7.4,11.1,14.5,21.9,21.9,33,2.1-1.9,1.8-4,1.8-5.9,0-8.2.2-16.3,0-24.5,0-3.9,1.2-5.3,5.2-5.2,8.2,0,8.3-.1,8.1,8.2-.4,16,.5,31.9-.2,47.9-.1,3.2-1.1,3.9-4,4.2-6.6.7-11.4-.7-15.1-7.3-5.4-9.7-12.1-18.7-18.5-28.3-1.3,1.6-.8,3.3-.8,4.7,0,9,0,18,0,27,0,5-3.7,3.8-6.5,3.8-2.5,0-6.1,1.4-6.2-3.4-.5-17.6-.8-35.3-.2-52.9,0-.8.2-1.6.4-3,4.7.8,9.5-1.7,14.1,1.8Z"/>
  <path class="st0" d="M1167.3,604c0,11.1,0,21.8,0,32.3-9.4,2.9-13.4,1.6-18.4-5.9-4.9-7.4-9.8-14.7-14.7-22-1-1.4-1.5-3.5-3.9-3.3-1.6,1.5-1,3.4-1,5.2,0,7.7-.1,15.3,0,23,0,3-1,4.4-4.1,4.1-.3,0-.7,0-1,0-9.1,0-8.3,1.2-8.3-8.2,0-15.2.1-30.3-.1-45.5,0-4.6,1.4-5.9,6-6.1,5.6-.2,9.1,1.5,12,6.6,4.8,8.5,10.6,16.6,16,24.8.9,1.3,1.4,3.1,3.5,3.4,2.1-1.1,1.4-3.2,1.5-4.8,0-8.3.2-16.7,0-25,0-3.5,1-5,4.5-4.7,1.3.1,2.7.1,4,0,3.2-.3,4.4.9,4.3,4.3-.2,7.2,0,14.3-.1,22Z"/>
  <path class="st0" d="M1058.1,602.6c4.4-15.9,15.3-24.3,31.4-24.5,5.2,0,10.3,0,15.5,0,2.5,0,3.5.9,3.5,3.5-.1,17-.2,34,0,50.9,0,3.8-1.5,5.1-5,4.8-1.5-.1-3-.2-4.5,0-3.4.4-4.2-1.2-4.3-4.3,0-7.7-.2-7.7-7.8-7.7-3.5,0-7,0-10.5,0-3,0-4.6,1.3-4.9,4.4-.9,7.7-1,7.7-9,7.6-1.3,0-2.6-.2-4.3-.3,0-11.5,0-22.7,0-34.4M1072.4,603.2c0,3.6-2.1,8.1,3.6,9.3,15.3,3.2,18.7.5,18.6-14.6,0-.8,0-1.7,0-2.5.1-4.1-2.3-5.3-5.8-4.9-7.6.9-13.7,4.1-16.4,12.7Z"/>
  <path class="st2" d="M693.7,605.7c3.3-17.8,12.6-26.2,30.1-27.4,5.3-.4,10.6,0,16-.1,2.4,0,3.6,1,3.6,3.6,0,18,0,35.9,0,53.9,0,.5-.3.9-.6,1.6-1.3.1-2.6.3-3.9.3-9.2-.2-9.2,1-8.7-7.9.1-2.9-1-4.3-4.1-4.2-5.1.1-10.3,0-15.4,0-2.3,0-3.4,1-3.3,3.3,0,1.8,0,3.7,0,5.5,0,2.3-1,3.3-3.3,3.3-3.1,0-6.3,0-10.2,0,0-10.6,0-21,0-31.8M730.1,599.6c0-2,0-4-.2-6-.2-2.3-1.6-3.3-3.7-3.1-8.2.7-15.7,3.5-18.3,13.9-1.8,7.1-1,8.3,6.1,8.3,1.3,0,2.7,0,4,0q12.1,0,12.1-13.1Z"/>
  <path class="st2" d="M845.9,630.1c-17.3-17.9-9.9-45.8,13.3-51.8,16.9-4.3,34.2,5.8,38,22.2,4.1,17.8-6.7,34.5-24.6,37.5-9.8,1.6-18.8-.8-26.6-7.9M883.9,602.8c-.6-1.4-1-2.8-1.8-4.1-4.5-7.9-14.2-11.1-22.3-7.3-8,3.8-12.1,14.1-8.8,22.4,3.5,8.9,11.9,13.6,20.1,11.3,9.6-2.7,14.7-11.2,12.7-22.3Z"/>
  <path class="st0" d="M1310.3,619.9c1.5,8-2.9,11.7-8.9,14.6-19.5,9.4-40,.6-44.9-19.6-2.7-11.1.5-25,12.9-32.4,11.4-6.9,24.8-6.5,35,1.4,3.4,2.6,3.2,4.6.3,7.6-3.5,3.6-6.1,5-10.8,1.3-5.5-4.4-12.5-3.3-18.8,1.8-5.2,4.2-7.2,13.2-4.6,20.1,4.2,11.4,16.4,11.7,23.8,8.8,2.7-1,3.6-3.2,3.3-6-.3-3.1-2.6-3.5-5-3.6-.7,0-1.3-.1-2-.2-6.1-.5-8.2-3.6-6.5-9.5.5-1.8,1.7-2.4,3.3-2.4,6.5,0,13,0,19.5,0,2.6,0,3.5,1.3,3.5,3.7,0,4.7,0,9.3,0,14.5Z"/>
  <path class="st0" d="M1042,637.3c-6.3,0-12.2.1-18,0-9-.3-14.2-5.6-14.2-14.5,0-13.2,0-26.3,0-39.5,0-3.9,1-5,5.2-4.9,11.1.4,22.3.2,33.4-.1,3,0,4.4.5,4.1,3.7-.2,2.5,0,5,0,7.2-1.6,1.6-3.4,1.2-5,1.2-6,0-12,0-18,0-5.7.1-6.5,1.3-6.3,7,.1,3.3,1.6,4.3,4.7,4.3,5.7-.1,11.3.2,17,0,5.1-.2,4.5,3.1,4.5,6.3,0,3.3.2,6.4-4.6,6.3-5.5-.2-11,.1-16.5,0-3.6,0-5.1,1.4-5.1,5,0,3.6,1,5.8,5,5.7,6.3,0,12.7.3,19-.1,5.1-.3,5.2,2.6,5.2,6.3,0,3.7-.3,6.8-5.3,6.2-1.5-.2-3,0-5,0Z"/>
  <path class="st0" d="M951.9,578.6c4.1,1.6,7.6,3.5,10.8,5.9,2.1,1.5,2.3,2.8.6,4.9-4.8,5.9-6.6,6.3-13,2.6-5.6-3.2-11.2-2.3-16.6.8-7.4,4.3-9.8,16.7-4.8,25,4.2,7,14.7,9.4,22.1,5.1,1.6-.9,3-3.4,5.2-1.9,2.8,1.8,5.7,3.5,7.5,6.4,1.1,1.8-.6,2.7-1.7,3.6-9.2,7.6-19.6,8.6-30.5,4.7-11-4-17.3-12.5-18.6-23.9-2.5-22.3,16.6-38.6,39-33.2Z"/>
  <path class="st0" d="M967.6,608.2c-.2-8.6-.1-16.8-.6-24.9-.4-5.7,3-5.5,6.9-5.5,3.9,0,6.7,0,6.5,5.4-.3,11-.1,22,0,32.9,0,6.4,2,8.4,8.3,8.4,5.6,0,11.3,0,17,0,1.5,3.6.6,6.9.6,10.2,0,2.3-1.7,2.5-3.5,2.5-6.7,0-13.3.4-20-.1-9.4-.7-15-7.1-15.1-16.5,0-4,0-8,0-12.5Z"/>
  <path class="st4" d="M885.7,693.5c-.2-2,.3-3.8-1.3-5.4-2.8,1.7-3.9,4.8-5.7,7.2-4.2,5.7-5.4,5.7-9.2,0-2.2-3.3-4.5-6.4-7.1-10.1-1.9,6.3-.3,12.1-1.6,17.5-2.5.8-4.7,1-7.2,0-.7-10.1-.6-20.2-.4-30.3,0-1.7-.3-4,2.1-4.5,2.4-.5,4.9-.7,6.6,2,2.9,4.4,6.1,8.7,9.2,13.1.9,1.3,1.9,2.6,3.1,4.3,4.6-4.4,7.1-10,10.6-14.7.9-1.2,1.7-2.5,2.6-3.6,1.4-1.7,3.3-1.4,5.1-1,1.6.4,1.7,1.9,1.7,3.2,0,9.7,0,19.3,0,29,0,2.7-1.4,3.5-3.8,3.3-2.1-.2-4.6.3-4.6-3,0-2.2,0-4.3,0-6.9Z"/>
  <path class="st2" d="M829.5,578.6c1.4,14.8,1.3,29.3.5,43.7-.6,10.8-8.2,16.5-18.9,16.3-2.4,0-4.3-.6-3.8-3.2.5-2.7-2.3-6.5,2.5-7.9,6.2-1.9,7.9-4.3,8-10.9,0-10.5,0-21,0-31.5q0-7.4,7.4-7.3c1.3,0,2.6.3,4.3.7Z"/>
  <path class="st0" d="M1189.3,615c0,6.2-.2,11.8,0,17.5.1,3.6-1.1,5.2-4.9,4.9-2.6-.2-5.3,0-7.6,0-1.6-1.8-1.1-3.5-1.1-5.1,0-16.1,0-32.3,0-48.4,0-6,0-5.8,7.8-6.1,4.5-.2,6.1,1.1,5.9,5.9-.4,10.3-.1,20.6-.1,31.4Z"/>
  <path class="st4" d="M1096,703.3c-5.3.9-9.1-.3-11.4-5.2-1-2.2-2.2-5.5-5.6-4.6-3.1.9-1.8,4.2-2.4,6.4-.3.9-.2,2-.2,2.9-7.5,1.8-8.5,1.1-8.6-5.9,0-8.1,0-16.3,0-24.4,0-3.4,1.2-4.9,4.6-4.7,3.6.2,7.3-.1,11,0,10.5.5,16.3,11.1,10.4,19.7-2.6,3.7-1.9,6,.3,9.2,1.3,1.9,4.6,3.4,2,6.7M1081.3,684.9c3.1,0,5.8-1.2,5.9-4.7,0-3.2-2.5-4.5-5.3-4.7-2.2-.2-4.5.3-4.8,3.1-.2,2.7-1,6,4.2,6.2Z"/>
  <path class="st4" d="M983.3,698.2c-3.4,3.7-7.4,5-11.9,5.2-5,.1-10,0-15.8,0,0-4.6,0-9,0-13.4,0-5.7.2-11.3,0-17-.2-4.2,1.5-5.7,5.5-5.3,2.1.2,4.3.1,6.5,0,7.8-.4,14.6,1.8,18,9,3.3,7.1,2.8,14.6-2.4,21.5M970.8,695.6c6.7-2.3,9.2-6.1,8-12.2-.9-4.9-5.6-8.2-11.1-7.9-2.8.1-4.3,1.3-4.3,4.2,0,3.2,0,6.3,0,9.5q0,6.5,7.5,6.5Z"/>
  <path class="st4" d="M1133,699c-6.6-3.1-11.2-2-15.8,3.3-2.3,2.7-5.1,1.2-7.8.8-1-2.3.2-4.1.9-5.9,3.2-8.4,6.6-16.7,9.7-25.1,1.1-3,2.8-4.4,6.2-4.4,3.4,0,4.6,1.7,5.6,4.4,3.5,9.2,7.2,18.2,10.8,27.4.4,1.1,1,2.1.4,3.7-3.9.4-8.2,1.9-10.2-4.1M1124.1,683.9c-.2.6-.5,1.2-.6,1.9-.3,1.4,0,2.6,1.6,3,1.2.2,2.5.2,3.1-.9,1.1-2-.1-3.8-1.3-5.4-1.1-1.4-1.9-.4-2.7,1.4Z"/>
  <path class="st4" d="M915.7,679.8c1-2.7,2.1-5,2.8-7.3.9-2.9,2.1-4.9,5.8-4.9,3.7,0,5.4,1.6,6.6,4.7,3.2,8.6,6.7,17,9.9,25.6.6,1.5,1.5,3,.9,5.4-3.8.2-7.7,1.9-9.9-3.7-1.3-3.3-13.3-3.4-14.5,0-2.1,5.6-5.8,4-10.2,3.4,2.2-8,5.7-15.2,8.5-23M925.2,681.4c0-.1-.2-.3-.3-.4-.1-.1-.4-.3-.4-.3-1.8,2.4-2.8,5.1-2.9,8,2.2,1.3,3.9.7,5.6-.8,0-2.2-1-4.1-2.1-6.5Z"/>
  <path class="st4" d="M1009.4,678.4c0,2.9,1.8,3.2,3.8,3.2,2.5,0,5,0,7.5,0,2.9,0,4.8.4,4.7,4,0,3.4-1.9,3.8-4.5,3.7-2.7,0-5.3,0-8,0-2.2,0-3.4.9-3.5,3.2,0,2.5,1.4,3.1,3.5,3.1,3.2,0,6.3,0,9.5,0,6.3,0,6.6.4,5.3,7.5h-25.9v-35.4c8.2,0,16.1-.1,24,0,3,0,2.4,2.7,2.4,4.6,0,2-.7,3.1-2.9,3.1-4,0-8,0-12,0-1.8,0-3.8,0-4,3Z"/>
  <path class="st4" d="M1042.7,672.2c-.3-4.4,2.3-4.5,5.2-4.5,3.1,0,3.4,2,3.4,4.3,0,9.1-.1,18.3,0,27.4,0,3.5-1.6,4-4.6,4.1-3,0-4.2-.9-4.1-4,.1-9,0-17.9,0-27.4Z"/>
  <path class="st1" d="M1022.6,364.4c22.3,13.7,44.3,27.2,66.3,40.6,3.2,2,4.5,4.2,4.5,8-.2,26.8,0,53.7-.1,80.5,0,1.5-.1,2.9-.2,4.3-1.8,1-3.4,1-5.1.4-1.1-2.1-.3-4.3-.3-6.4,0-24.3,0-48.7,0-73,0-4.3-1-7.6-5-10-27.6-16.8-55.1-33.7-82.6-50.7-3.2-2-5.6-1.8-8.6,0-19.5,12.2-39,24.3-58.5,36.4-7.9,4.9-15.7,10.1-23.7,14.9-3.1,1.9-4.2,4.2-4.2,7.8,0,24.8,0,49.7,0,74.5,0,1.5,0,3-.1,4.5,0,1.6-1,2.4-2.6,2.3-1.5-.1-3.1,0-3.3-2.2-.1-1.3-.2-2.7-.2-4,0-26.3,0-52.7,0-79,0-3.6,1.1-5.8,4.1-7.7,24.5-15.9,49.5-30.8,74.2-46.2,5.1-3.2,10.3-6.2,15.2-9.6,2.4-1.6,4.3-1.8,6.8-.2,7.7,4.9,15.5,9.7,23.6,14.7Z"/>
  <path class="st3" d="M965.8,459.9c0-5.3.1-10.2,0-15-.1-3.3.9-5,4.5-4.9,6.3.1,12.7,0,19,0,2.9,0,4.2,1.2,4.1,4.2-.1,6.7,0,13.3,0,20,0,2.8-1.3,3.9-3.9,3.9-6.5,0-13,0-19.5,0-6,0-3.6-4.7-4.1-8.2Z"/>
  <path class="st3" d="M968.4,437c-2.8-.8-2.6-2.8-2.6-4.6,0-6.3,0-12.7,0-19,0-2.9,1-4.4,4-4.4,6.5,0,13,0,19.5,0,2.9,0,4.2,1.1,4.2,4.2-.1,6.5-.1,13,0,19.5,0,3.4-1.5,4.4-4.5,4.3-6.7,0-13.3,0-20.4,0Z"/>
  <path class="st3" d="M1021.6,440.2c2.6.5,2.7,2.2,2.7,3.9,0,6.7,0,13.3,0,20,0,3-1.2,4.2-4.2,4.1-6.5,0-13,0-19.5,0-2.7,0-3.9-1.2-3.9-3.9,0-6.5.1-13,0-19.5,0-3.4,1.5-4.8,4.8-4.7,6.5,0,13,0,19.9.1Z"/>
  <path class="st3" d="M996.9,423q0-14,13.5-14c3.5,0,7,0,10.5,0,2.4,0,3.6,1.2,3.5,3.7,0,6.8-.1,13.7,0,20.5,0,2.9-1.5,3.8-4,3.8-6.3,0-12.7-.1-19-.1-3.1,0-4.6-1.3-4.5-4.5.1-3,0-6,0-9.5Z"/>
</svg>