<svg xmlns="http://www.w3.org/2000/svg" viewBox="0 0 2000 2000" width="2000" height="2000"><defs>
    <style>
      .house { fill:#3b5260; } /* Hauptform (wie st3) */
      .roof  { fill:#9ca4a7; } /* Dachstruktur (wie st1) */
      .win   { fill:#94a4a3; } /* Fenster (hell, sichtbar) */
    </style>
  </defs><g transform="translate(1000 1000) scale(1.35) translate(-1000 -1000)">

    <!-- Zentrierung deines Original-Logos (1024px hoch in 2000px Canvas) -->
    <g transform="translate(0,488)">

      <!-- ORIGINAL: Hauskontur / Hauptform -->
      <path class="house" d="M940.9,539.2c-13.5-4.4-26.2-9.8-39.7-13.2-7-1.7-14.1-2.6-21.1-3.6-4-.6-5.6-2.1-5.6-6.4.2-29.3,0-58.6,0-88,0-9.8-2.3-12.9-12-15.8-2.5-.8-4.9-1.7-7.2-2.4,0-2.3,1.3-2.7,2.4-3.4,8.6-5.6,17.2-11.4,26-16.8,3.6-2.2,4.9-4.8,4.8-9-.2-11.8,0-23.7-.1-35.5,0-4,1.2-5.6,5.4-5.5,9.9.2,19.9,0,30.1,0,.8,7.5-.4,14.5,1.1,21.4,2.8.2,4.8-1.6,6.8-2.8,19.7-12.2,39.4-24.4,58.9-36.8,3.9-2.5,6.7-2.6,10.7,0,34.1,21.7,68.5,43.1,102.7,64.7,9.7,6.1,19.3,12.5,28.9,18.7,1.1.7,2.4,1.3,2.8,2.8-.4,2.1-2.3,2.2-3.8,2.6-4.2,1-7.5,3.5-10.9,5.9-3.1,2.2-4,4.8-4,8.5,0,29.8,0,59.6.1,89.5,0,4.9-.6,7.1-6.4,7.8-22.5,2.8-43.2,11.7-64.4,19.3-15.7,5.6-31.3,11.2-47,16.9-2.2.8-4.1.9-6.3,0-17.4-6.3-34.8-12.5-52.5-18.8M948.5,521.9c15,5.5,30,11,44.9,16.7,1.9.7,3.4.8,5.2,0,18.4-6.9,36.7-13.9,55.2-20.6,12.7-4.6,24.9-10.5,38.5-12,4.7-.5,5.6-2.5,5.6-6.6-.1-29-.2-58,.1-87,0-5.9-2.2-8.9-6.9-11.8-30.4-18.5-60.8-37.3-91-56.1-3.2-2-5.4-2.1-8.5,0-10.1,6.5-20.3,12.8-30.4,19.1-21.3,13.3-42.7,26.5-64.1,39.8-1.9,1.2-3.3,2.3-3.2,5,.2,28.5.2,57,.3,85.5q0,10.8,10.7,13.1c.5.1,1,.3,1.4.4,14.2,3.7,27.8,9.3,42.2,14.6Z"></path>

      <!-- ORIGINAL: Dachstruktur -->
      <path class="roof" d="M1022.6,364.4c22.3,13.7,44.3,27.2,66.3,40.6,3.2,2,4.5,4.2,4.5,8-.2,26.8,0,53.7-.1,80.5,0,1.5-.1,2.9-.2,4.3-1.8,1-3.4,1-5.1.4-1.1-2.1-.3-4.3-.3-6.4,0-24.3,0-48.7,0-73,0-4.3-1-7.6-5-10-27.6-16.8-55.1-33.7-82.6-50.7-3.2-2-5.6-1.8-8.6,0-19.5,12.2-39,24.3-58.5,36.4-7.9,4.9-15.7,10.1-23.7,14.9-3.1,1.9-4.2,4.2-4.2,7.8,0,24.8,0,49.7,0,74.5,0,1.5,0,3-.1,4.5,0,1.6-1,2.4-2.6,2.3-1.5-.1-3.1,0-3.3-2.2-.1-1.3-.2-2.7-.2-4,0-26.3,0-52.7,0-79,0-3.6,1.1-5.8,4.1-7.7,24.5-15.9,49.5-30.8,74.2-46.2,5.1-3.2,10.3-6.2,15.2-9.6,2.4-1.6,4.3-1.8,6.8-.2,7.7,4.9,15.5,9.7,23.6,14.7Z"></path>

      <!-- ORIGINAL: 4 Fenster (sichtbar) -->
      <path class="win" d="M965.8,459.9c0-5.3.1-10.2,0-15-.1-3.3.9-5,4.5-4.9,6.3.1,12.7,0,19,0,2.9,0,4.2,1.2,4.1,4.2-.1,6.7,0,13.3,0,20,0,2.8-1.3,3.9-3.9,3.9-6.5,0-13,0-19.5,0-6,0-3.6-4.7-4.1-8.2Z"></path>
      <path class="win" d="M968.4,437c-2.8-.8-2.6-2.8-2.6-4.6,0-6.3,0-12.7,0-19,0-2.9,1-4.4,4-4.4,6.5,0,13,0,19.5,0,2.9,0,4.2,1.1,4.2,4.2-.1,6.5-.1,13,0,19.5,0,3.4-1.5,4.4-4.5,4.3-6.7,0-13.3,0-20.4,0Z"></path>
      <path class="win" d="M1021.6,440.2c2.6.5,2.7,2.2,2.7,3.9,0,6.7,0,13.3,0,20,0,3-1.2,4.2-4.2,4.1-6.5,0-13,0-19.5,0-2.7,0-3.9-1.2-3.9-3.9,0-6.5.1-13,0-19.5,0-3.4,1.5-4.8,4.8-4.7,6.5,0,13,0,19.9.1Z"></path>
      <path class="win" d="M996.9,423q0-14,13.5-14c3.5,0,7,0,10.5,0,2.4,0,3.6,1.2,3.5,3.7,0,6.8-.1,13.7,0,20.5,0,2.9-1.5,3.8-4,3.8-6.3,0-12.7-.1-19-.1-3.1,0-4.6-1.3-4.5-4.5.1-3,0-6,0-9.5Z"></path>

    </g>
  </g></svg>